<svg width="810" height="255" viewBox="0 0 810 255" fill="none" xmlns="http://www.w3.org/2000/svg">
<rect x="93.8281" y="76.3242" width="58.3964" height="58.3964" rx="14.0151" fill="#1E2841"/>
<g clip-path="url(#clip0_1_5209)">
<rect x="111.733" y="98.3164" width="21.6797" height="14.0151" rx="2.62784" fill="#384568"/>
<path d="M121.169 106.187C122.099 106.878 123.372 106.878 124.302 106.187L132.779 99.8958C133.457 99.3928 133.101 98.3164 132.257 98.3164H113.214C112.37 98.3164 112.014 99.3928 112.692 99.8958L121.169 106.187Z" fill="#303B59"/>
</g>
<path d="M118.133 217.738L98.2826 229.082L103.954 239.009C104.616 238.631 112.518 234.641 138.835 221.707C134.297 213.767 123.143 215.753 118.133 217.738Z" fill="black"/>
<rect x="60.3955" y="171.906" width="31.2224" height="68.9188" transform="rotate(-29.9324 60.3955 171.906)" fill="#1F2C3E"/>
<path d="M118.198 128.462C116.895 130.984 113.385 132.63 111.794 133.137L102.647 133.112L105.849 145.099C108.48 144.931 115.182 144.26 120.948 142.917C128.156 141.238 128.117 140.63 131.643 138.577C137.637 135.087 136.438 132.786 133.723 132.959L123.403 133.617L123.402 133.617C122.188 133.694 119.154 133.888 121.427 131.305C123.7 128.722 119.827 125.311 118.198 128.462Z" fill="#64707E"/>
<path d="M52.8554 183.72C49.8584 176.113 47.7476 168.186 46.5648 160.096L79.3777 160.266L85.5958 196.534L58.5473 198.167L52.8554 183.72Z" fill="#1F2C3E"/>
<path d="M33.6034 215.016L27.521 192.828L20.6497 194.074C18.2537 194.508 16.6007 196.832 16.9539 199.242C17.7073 204.382 19.1698 214.649 21.757 233.322C30.7451 231.691 33.9138 220.374 33.6034 215.016Z" fill="black"/>
<path d="M34.3219 217.728L25.6688 190.945L70.4176 179.536C76.2857 178.04 82.2498 181.609 83.7061 187.487L85.285 193.86C86.7343 199.71 83.1667 205.627 77.3166 207.077L34.3219 217.728Z" fill="#1F2C3E"/>
<path d="M39.8838 76.7812C42.3295 88.967 53.7196 97.341 65.9053 94.8952C83.7542 93.6201 84.9164 77.9572 84.7862 72.5912C84.7572 71.3942 84.447 70.249 83.9246 69.1716C81.1299 63.4078 70.7849 44.6549 57.0485 50.7668C44.8627 53.2125 37.438 64.5955 39.8838 76.7812Z" fill="#64707E"/>
<path d="M84.7559 68.9861C83.5357 69.1862 82.0078 64.6381 81.0133 63.8538L80.3395 71.0701L80.9922 87.1035C85.4197 81.935 86.5659 71.5036 86.4187 70.2743C86.2591 68.941 85.6275 68.8432 84.7559 68.9861Z" fill="#64707E"/>
<path fill-rule="evenodd" clip-rule="evenodd" d="M72.6109 52.9639C67.5526 54.7642 58.6118 58.6532 52.952 68.663C47.4167 78.4528 48.0742 83.1784 49.0384 90.107C49.0974 90.5313 49.1576 90.964 49.2176 91.4066C44.2157 88.2321 40.4675 83.0997 39.2096 76.8326C36.7639 64.6469 44.6597 52.7857 56.8455 50.34C62.4672 49.2117 68.0199 50.2844 72.6109 52.9639Z" fill="#0F172A"/>
<ellipse cx="1.60745" cy="1.61402" rx="1.60745" ry="1.61402" transform="matrix(-0.90602 0.423235 0.423235 0.90602 73.9678 63.2734)" fill="#1F2C3E"/>
<circle cx="5.62606" cy="5.62606" r="5.62606" transform="matrix(-0.980447 0.196781 0.196781 0.980447 53.5059 69.3748)" fill="#64707E"/>
<rect x="53.0586" y="86.9534" width="15.2082" height="17.5864" rx="7.60409" transform="rotate(1.73691 53.0586 86.9534)" fill="#64707E"/>
<mask id="path-16-outside-1_1_5209" maskUnits="userSpaceOnUse" x="28.7915" y="32.9521" width="45.1851" height="34.8322" fill="black">
<rect fill="white" x="28.7915" y="32.9521" width="45.1851" height="34.8322"/>
<path fill-rule="evenodd" clip-rule="evenodd" d="M68.6111 48.6003L39.0189 62.7555C36.9239 56.7165 41.1497 49.1669 48.9221 45.449C56.6945 41.7311 65.2243 43.1792 68.6111 48.6003Z"/>
</mask>
<path fill-rule="evenodd" clip-rule="evenodd" d="M68.6111 48.6003L39.0189 62.7555C36.9239 56.7165 41.1497 49.1669 48.9221 45.449C56.6945 41.7311 65.2243 43.1792 68.6111 48.6003Z" fill="#1F2C3E"/>
<path d="M39.0189 62.7555L35.94 63.8236L37.1353 67.2691L40.4252 65.6954L39.0189 62.7555ZM68.6111 48.6003L70.0174 51.5401L73.3073 49.9664L71.375 46.8735L68.6111 48.6003ZM40.4252 65.6954L70.0174 51.5401L67.2049 45.6604L37.6127 59.8157L40.4252 65.6954ZM42.0978 61.6875C40.7622 57.8374 43.3715 51.7166 50.3284 48.3888L47.5158 42.5091C38.9279 46.6171 33.0857 55.5957 35.94 63.8236L42.0978 61.6875ZM50.3284 48.3888C57.2852 45.0611 63.6881 46.8709 65.8473 50.327L71.375 46.8735C66.7605 39.4875 56.1038 38.4011 47.5158 42.5091L50.3284 48.3888Z" fill="#1F2C3E" mask="url(#path-16-outside-1_1_5209)"/>
<rect x="34.085" y="65.1155" width="43.7382" height="5.46727" rx="1.82242" transform="rotate(-25.5639 34.085 65.1155)" fill="#1F2C3E"/>
<path d="M45.7301 106.738C49.4454 97.991 56.2482 97.9352 59.3162 98.499L65.2323 133.272L98.8125 131.326L101.733 150.537C86.464 151.547 51.2579 162.13 40.8227 150.114C34.0615 142.328 41.0859 117.671 45.7301 106.738Z" fill="#1F2C3E"/>
<path fill-rule="evenodd" clip-rule="evenodd" d="M86.3918 128.554C86.3815 128.474 86.3711 128.394 86.3604 128.314C83.7679 108.813 71.9527 94.295 59.9705 95.888C45.7941 96.3976 40.3955 114.518 42.9555 133.98L42.9549 133.98L46.7197 162.3L90.1111 156.531L86.3918 128.554Z" fill="#1F2C3E"/>
<path d="M53.5704 104.615C57.4373 95.947 63.9477 96.3812 67.0614 97.0068L73.1288 131.53L107.405 127.794L111.056 152.801C95.5204 153.503 58.6258 160.094 48.1383 147.872C41.3432 139.953 48.7368 115.449 53.5704 104.615Z" fill="#1F2C3E"/>
<rect x="55.0156" y="151.399" width="35.2812" height="24.3319" fill="#1F2C3E"/>
<rect x="258.219" y="76.3245" width="58.3964" height="58.3964" rx="14.0151" fill="#1E2841"/>
<rect x="272.818" y="104.441" width="8.65133" height="10.8142" rx="1.21659" fill="#303B59"/>
<rect x="282.551" y="100.116" width="8.65133" height="15.1398" rx="1.21659" fill="#303B59"/>
<rect x="292.284" y="95.79" width="8.65133" height="19.4655" rx="1.21659" fill="#303B59"/>
<path d="M282.522 217.737L262.671 229.081L268.343 239.008C269.005 238.63 276.907 234.64 303.224 221.707C298.686 213.767 287.532 215.752 282.522 217.737Z" fill="black"/>
<rect x="224.784" y="171.905" width="31.2224" height="68.9188" transform="rotate(-29.9324 224.784 171.905)" fill="#1F2C3E"/>
<path d="M282.59 128.462C281.287 130.983 277.777 132.629 276.185 133.137L267.038 133.112L270.241 145.098C272.871 144.931 279.574 144.259 285.34 142.916C292.547 141.238 292.508 140.63 296.035 138.577C302.028 135.087 300.829 132.785 298.115 132.958L287.794 133.616L287.794 133.616C286.58 133.694 283.545 133.887 285.819 131.305C288.092 128.721 284.218 125.311 282.59 128.462Z" fill="#64707E"/>
<path d="M217.246 183.72C214.249 176.113 212.138 168.186 210.955 160.096L243.768 160.266L249.986 196.534L222.938 198.167L217.246 183.72Z" fill="#1F2C3E"/>
<path d="M197.994 215.016L191.912 192.828L185.04 194.074C182.644 194.508 180.991 196.832 181.345 199.242C182.098 204.382 183.56 214.649 186.148 233.322C195.136 231.691 198.304 220.374 197.994 215.016Z" fill="black"/>
<path d="M198.713 217.728L190.059 190.944L234.808 179.536C240.676 178.04 246.64 181.608 248.097 187.487L249.676 193.86C251.125 199.71 247.557 205.627 241.707 207.076L198.713 217.728Z" fill="#1F2C3E"/>
<path d="M204.266 76.7802C206.711 88.966 218.101 97.34 230.287 94.8942C248.136 93.6191 249.298 77.9562 249.168 72.5902C249.139 71.3932 248.829 70.248 248.306 69.1706C245.512 63.4068 235.167 44.6539 221.43 50.7658C209.245 53.2115 201.82 64.5945 204.266 76.7802Z" fill="#64707E"/>
<path d="M249.139 68.9849C247.918 69.185 246.391 64.6369 245.396 63.8526L244.722 71.0688L245.375 87.1023C249.803 81.9337 250.949 71.5023 250.802 70.2731C250.642 68.9398 250.01 68.842 249.139 68.9849Z" fill="#64707E"/>
<path fill-rule="evenodd" clip-rule="evenodd" d="M236.995 52.9619C231.937 54.7619 222.994 58.6507 217.334 68.6617C211.799 78.4515 212.456 83.1771 213.42 90.1056C213.479 90.5294 213.539 90.9613 213.599 91.4032C208.598 88.2286 204.851 83.0967 203.593 76.8305C201.147 64.6447 209.043 52.7836 221.229 50.3378C226.851 49.2095 232.404 50.2823 236.995 52.9619Z" fill="#0F172A"/>
<ellipse cx="1.60745" cy="1.61402" rx="1.60745" ry="1.61402" transform="matrix(-0.90602 0.423235 0.423235 0.90602 238.35 63.2722)" fill="#1F2C3E"/>
<circle cx="5.62606" cy="5.62606" r="5.62606" transform="matrix(-0.980447 0.196781 0.196781 0.980447 217.888 69.374)" fill="#64707E"/>
<rect x="217.441" y="86.9517" width="15.2082" height="17.5864" rx="7.60409" transform="rotate(1.73691 217.441 86.9517)" fill="#64707E"/>
<mask id="path-39-outside-2_1_5209" maskUnits="userSpaceOnUse" x="193.173" y="32.9521" width="45.1851" height="34.8322" fill="black">
<rect fill="white" x="193.173" y="32.9521" width="45.1851" height="34.8322"/>
<path fill-rule="evenodd" clip-rule="evenodd" d="M232.993 48.5999L203.401 62.7552C201.306 56.7162 205.532 49.1668 213.304 45.449C221.076 41.7312 229.606 43.1792 232.993 48.5999Z"/>
</mask>
<path fill-rule="evenodd" clip-rule="evenodd" d="M232.993 48.5999L203.401 62.7552C201.306 56.7162 205.532 49.1668 213.304 45.449C221.076 41.7312 229.606 43.1792 232.993 48.5999Z" fill="#1F2C3E"/>
<path d="M203.401 62.7552L200.322 63.8231L201.517 67.2688L204.807 65.695L203.401 62.7552ZM232.993 48.5999L234.399 51.5398L237.689 49.966L235.756 46.8731L232.993 48.5999ZM204.807 65.695L234.399 51.5398L231.586 45.6601L201.994 59.8153L204.807 65.695ZM206.48 61.6872C205.144 57.8371 207.753 51.7165 214.71 48.3889L211.898 42.5091C203.31 46.6171 197.468 55.5953 200.322 63.8231L206.48 61.6872ZM214.71 48.3889C221.667 45.0612 228.07 46.8708 230.229 50.3268L235.756 46.8731C231.142 39.4875 220.485 38.4012 211.898 42.5091L214.71 48.3889Z" fill="#1F2C3E" mask="url(#path-39-outside-2_1_5209)"/>
<rect x="198.467" y="65.1147" width="43.7382" height="5.46727" rx="1.82242" transform="rotate(-25.5639 198.467 65.1147)" fill="#1F2C3E"/>
<path d="M210.12 106.737C213.835 97.9905 220.638 97.9347 223.706 98.4985L229.622 133.271L263.202 131.326L266.123 150.536C250.854 151.547 215.648 162.13 205.212 150.113C198.451 142.327 205.476 117.67 210.12 106.737Z" fill="#1F2C3E"/>
<path fill-rule="evenodd" clip-rule="evenodd" d="M207.389 134.296C207.379 134.225 207.37 134.154 207.36 134.082C204.768 114.581 210.16 96.3979 224.362 95.8873C236.323 94.2971 248.118 108.761 250.738 128.211L250.738 128.211L254.503 156.531L211.112 162.299L207.389 134.296Z" fill="#1F2C3E"/>
<path d="M217.96 104.614C221.827 95.9465 228.337 96.3807 231.451 97.0063L237.518 131.53L271.794 127.794L275.446 152.801C259.91 153.502 223.015 160.093 212.528 147.871C205.733 139.952 213.126 115.448 217.96 104.614Z" fill="#1F2C3E"/>
<rect x="219.405" y="151.399" width="35.2812" height="24.3319" fill="#1F2C3E"/>
<rect x="422.004" y="76.4004" width="58.3964" height="58.3964" rx="14.0151" fill="#1E2841"/>
<path fill-rule="evenodd" clip-rule="evenodd" d="M441.307 105.433C441.318 105.74 441.445 106.032 441.663 106.25L452.138 116.725C452.613 117.2 453.384 117.2 453.859 116.725L461.983 108.601C462.458 108.126 462.458 107.355 461.983 106.88L451.508 96.4049C451.29 96.1872 450.998 96.0602 450.69 96.0493L442.27 95.7534C441.565 95.7286 440.987 96.3068 441.011 97.0119L441.307 105.433ZM446.434 101.177C447.038 100.573 447.038 99.5932 446.434 98.9891C445.83 98.3849 444.85 98.3849 444.246 98.9891C443.642 99.5932 443.642 100.573 444.246 101.177C444.85 101.781 445.83 101.781 446.434 101.177Z" fill="#303B59"/>
<path d="M446.761 217.737L426.911 229.081L432.582 239.008C433.244 238.63 441.146 234.64 467.463 221.707C462.925 213.767 451.771 215.752 446.761 217.737Z" fill="black"/>
<rect x="389.023" y="171.905" width="31.2224" height="68.9188" transform="rotate(-29.9324 389.023 171.905)" fill="#1F2C3E"/>
<path d="M446.829 128.462C445.526 130.983 442.016 132.629 440.424 133.137L431.278 133.112L434.48 145.098C437.111 144.931 443.813 144.259 449.579 142.916C456.786 141.238 456.748 140.63 460.274 138.577C466.267 135.087 465.069 132.785 462.354 132.958L452.034 133.616L452.033 133.616C450.819 133.694 447.785 133.887 450.058 131.305C452.331 128.721 448.458 125.311 446.829 128.462Z" fill="#64707E"/>
<path d="M381.484 183.72C378.487 176.113 376.377 168.187 375.194 160.097L408.007 160.267L414.225 196.535L387.176 198.168L381.484 183.72Z" fill="#1F2C3E"/>
<path d="M362.232 215.017L356.15 192.828L349.279 194.074C346.883 194.509 345.23 196.833 345.583 199.242C346.336 204.383 347.799 214.65 350.386 233.322C359.374 231.692 362.543 220.375 362.232 215.017Z" fill="black"/>
<path d="M362.952 217.729L354.299 190.945L399.047 179.537C404.916 178.041 410.88 181.609 412.336 187.487L413.915 193.861C415.364 199.711 411.797 205.628 405.946 207.077L362.952 217.729Z" fill="#1F2C3E"/>
<path d="M368.509 76.7807C370.955 88.9665 382.345 97.3405 394.53 94.8947C412.379 93.6196 413.541 77.9567 413.411 72.5907C413.382 71.3937 413.072 70.2485 412.55 69.1711C409.755 63.4073 399.41 44.6544 385.673 50.7663C373.488 53.212 366.063 64.595 368.509 76.7807Z" fill="#64707E"/>
<path d="M413.382 68.9859C412.162 69.186 410.634 64.6379 409.639 63.8536L408.965 71.0698L409.618 87.1032C414.046 81.9347 415.192 71.5033 415.045 70.2741C414.885 68.9408 414.254 68.8429 413.382 68.9859Z" fill="#64707E"/>
<path fill-rule="evenodd" clip-rule="evenodd" d="M401.237 52.9629C396.179 54.763 387.237 58.6518 381.577 68.6625C376.041 78.4523 376.699 83.1778 377.663 90.1064C377.722 90.5303 377.782 90.9625 377.842 91.4046C372.841 88.2301 369.093 83.0979 367.835 76.8312C365.389 64.6455 373.285 52.7843 385.471 50.3386C391.093 49.2102 396.646 50.2831 401.237 52.9629Z" fill="#0F172A"/>
<ellipse cx="1.60745" cy="1.61402" rx="1.60745" ry="1.61402" transform="matrix(-0.90602 0.423235 0.423235 0.90602 402.593 63.2732)" fill="#1F2C3E"/>
<circle cx="5.62606" cy="5.62606" r="5.62606" transform="matrix(-0.980447 0.196781 0.196781 0.980447 382.131 69.3745)" fill="#64707E"/>
<rect x="381.686" y="86.9526" width="15.2082" height="17.5864" rx="7.60409" transform="rotate(1.73691 381.686 86.9526)" fill="#64707E"/>
<mask id="path-60-outside-3_1_5209" maskUnits="userSpaceOnUse" x="357.416" y="32.953" width="45.1851" height="34.8322" fill="black">
<rect fill="white" x="357.416" y="32.953" width="45.1851" height="34.8322"/>
<path fill-rule="evenodd" clip-rule="evenodd" d="M397.235 48.6009L367.643 62.7562C365.548 56.7172 369.774 49.1678 377.546 45.45C385.318 41.7322 393.848 43.1802 397.235 48.6009Z"/>
</mask>
<path fill-rule="evenodd" clip-rule="evenodd" d="M397.235 48.6009L367.643 62.7562C365.548 56.7172 369.774 49.1678 377.546 45.45C385.318 41.7322 393.848 43.1802 397.235 48.6009Z" fill="#1F2C3E"/>
<path d="M367.643 62.7562L364.564 63.8241L365.759 67.2698L369.049 65.696L367.643 62.7562ZM397.235 48.6009L398.641 51.5408L401.931 49.967L399.999 46.8741L397.235 48.6009ZM369.049 65.696L398.641 51.5408L395.829 45.6611L366.237 59.8163L369.049 65.696ZM370.722 61.6882C369.386 57.8381 371.996 51.7175 378.952 48.3898L376.14 42.5101C367.552 46.618 361.71 55.5963 364.564 63.8241L370.722 61.6882ZM378.952 48.3898C385.909 45.0621 392.312 46.8718 394.471 50.3278L399.999 46.8741C395.384 39.4885 384.728 38.4022 376.14 42.5101L378.952 48.3898Z" fill="#1F2C3E" mask="url(#path-60-outside-3_1_5209)"/>
<rect x="362.709" y="65.1157" width="43.7382" height="5.46727" rx="1.82242" transform="rotate(-25.5639 362.709 65.1157)" fill="#1F2C3E"/>
<path d="M374.36 106.738C378.075 97.991 384.878 97.9352 387.946 98.499L393.862 133.272L427.442 131.326L430.363 150.537C415.094 151.547 379.888 162.13 369.453 150.114C362.691 142.328 369.716 117.671 374.36 106.738Z" fill="#1F2C3E"/>
<path fill-rule="evenodd" clip-rule="evenodd" d="M415.019 128.536C415.01 128.462 415 128.388 414.99 128.314C412.398 108.813 400.583 94.2948 388.6 95.8877C374.424 96.3974 369.025 114.517 371.585 133.98L371.585 133.98L375.35 162.299L418.741 156.531L415.019 128.536Z" fill="#1F2C3E"/>
<path d="M382.199 104.615C386.066 95.947 392.577 96.3812 395.69 97.0068L401.758 131.53L436.034 127.794L439.685 152.801C424.149 153.503 387.255 160.094 376.767 147.872C369.972 139.953 377.366 115.449 382.199 104.615Z" fill="#1F2C3E"/>
<rect x="383.645" y="151.4" width="35.2812" height="24.3319" fill="#1F2C3E"/>
<path d="M613.751 52C613.751 49.2386 615.99 47 618.751 47C621.512 47 623.751 49.2386 623.751 52V215H613.751V52Z" fill="#334155"/>
<path d="M558.751 68C558.751 65.7909 560.542 64 562.751 64H671.137C672.177 64 673.177 64.4055 673.923 65.1304L686.796 77.6304C688.414 79.2014 688.414 81.7986 686.796 83.3696L673.923 95.8696C673.177 96.5945 672.177 97 671.137 97H562.751C560.542 97 558.751 95.2091 558.751 93V68Z" fill="#1E2841"/>
<path d="M565.751 67H669.89C670.532 67.0001 671.154 67.2063 671.667 67.584L671.88 67.7559L683.715 78.2559C685.018 79.4122 685.059 81.4204 683.837 82.6299L683.715 82.7441L671.88 93.2441C671.331 93.7309 670.623 93.9999 669.89 94H565.751C564.094 94 562.751 92.6569 562.751 91V70C562.751 68.3431 564.094 67 565.751 67Z" fill="#1E2841" stroke="#334257" stroke-width="2"/>
<path d="M574.798 86V74.6875H576.829V79.8906H576.985L581.407 74.6875H583.892L579.517 79.7656L583.938 86H581.485L578.095 81.1406L576.829 82.625V86H574.798ZM585.188 86V74.6875H592.548V76.3906H587.22V79.4844H592.157V81.1875H587.22V84.2812H592.579V86H585.188ZM594.501 86V74.6875H601.86V76.3906H596.532V79.4844H601.47V81.1875H596.532V84.2812H601.892V86H594.501ZM603.813 86V74.6875H608.063C610.657 74.6875 612.04 76.2656 612.048 78.4375C612.04 80.6016 610.642 82.1719 608.032 82.1719H605.845V86H603.813ZM605.845 80.5H607.751C609.282 80.4922 609.97 79.6328 609.97 78.4375C609.97 77.2266 609.282 76.3906 607.751 76.3906H605.845V80.5ZM625.063 78.2969C624.696 77.0938 623.767 76.3594 622.392 76.3594C620.571 76.3594 619.243 77.7812 619.251 80.3281C619.243 82.8984 620.548 84.3281 622.438 84.3281C624.149 84.3281 625.235 83.2969 625.267 81.6875H622.642V80.0781H627.235V81.4375C627.235 84.3516 625.235 86.1562 622.438 86.1562C619.313 86.1562 617.196 83.9297 617.204 80.3438C617.196 76.7109 619.415 74.5312 622.376 74.5312C624.868 74.5312 626.798 76.0781 627.142 78.2969H625.063ZM639.173 80.3438C639.181 84 636.946 86.1562 633.985 86.1562C631.009 86.1562 628.79 83.9922 628.798 80.3438C628.79 76.6875 631.009 74.5312 633.985 74.5312C636.946 74.5312 639.181 76.6875 639.173 80.3438ZM630.845 80.3438C630.837 82.9297 632.142 84.3281 633.985 84.3281C635.837 84.3281 637.134 82.9297 637.126 80.3438C637.134 77.7578 635.837 76.3594 633.985 76.3594C632.142 76.3594 630.837 77.7578 630.845 80.3438ZM643.017 74.6875V86H640.985V74.6875H643.017ZM654.423 74.6875V86H652.61L647.251 78.2656H647.157V86H645.126V74.6875H646.97L652.298 82.4219H652.407V74.6875H654.423ZM664.095 78.2969C663.728 77.0938 662.798 76.3594 661.423 76.3594C659.603 76.3594 658.274 77.7812 658.282 80.3281C658.274 82.8984 659.579 84.3281 661.47 84.3281C663.181 84.3281 664.267 83.2969 664.298 81.6875H661.673V80.0781H666.267V81.4375C666.267 84.3516 664.267 86.1562 661.47 86.1562C658.345 86.1562 656.228 83.9297 656.235 80.3438C656.228 76.7109 658.446 74.5312 661.407 74.5312C663.899 74.5312 665.829 76.0781 666.173 78.2969H664.095Z" fill="#334257"/>
<rect x="587.751" y="117" width="62" height="62" rx="11" fill="#1E2841" stroke="#334257" stroke-width="2"/>
<path d="M600.298 128.391V126.688H609.313V128.391H605.829V138H603.798V128.391H600.298ZM610.907 138V126.688H612.938V131.484H618.204V126.688H620.251V138H618.204V133.188H612.938V138H610.907ZM624.376 126.688V138H622.345V126.688H624.376ZM632.642 129.797C632.54 128.82 631.72 128.258 630.501 128.266C629.212 128.258 628.446 128.883 628.438 129.734C628.431 130.688 629.438 131.078 630.376 131.297L631.438 131.578C633.126 131.969 634.751 132.859 634.751 134.828C634.751 136.812 633.181 138.172 630.47 138.172C627.837 138.172 626.165 136.906 626.079 134.672H628.079C628.173 135.852 629.165 136.43 630.454 136.438C631.79 136.43 632.712 135.781 632.72 134.812C632.712 133.922 631.899 133.547 630.673 133.234L629.392 132.906C627.532 132.422 626.376 131.484 626.376 129.859C626.376 127.859 628.149 126.531 630.532 126.531C632.931 126.531 634.563 127.883 634.595 129.797H632.642ZM603.188 156L600.001 144.688H602.188L604.235 153.016H604.345L606.517 144.688H608.517L610.704 153.031H610.798L612.845 144.688H615.032L611.845 156H609.829L607.563 148.047H607.485L605.204 156H603.188ZM616.704 156H614.532L618.517 144.688H621.017L625.017 156H622.845L621.899 153.203H617.642L616.704 156ZM618.188 151.562H621.353L619.813 147H619.72L618.188 151.562ZM624.423 144.688H626.72L629.501 149.688H629.61L632.392 144.688H634.688L630.579 151.766V156H628.548V151.766L624.423 144.688Z" fill="#334257"/>
<path d="M601.487 170.789L600.751 162.684L630.185 163.421V159L639.751 165.632L630.185 173V167.842L601.487 170.789Z" fill="#334257"/>
<path d="M784.001 13C784.001 10.2386 786.24 8 789.001 8C791.762 8 794.001 10.2386 794.001 13V215H784.001V13Z" fill="#334155"/>
<rect x="768.001" y="8" width="42" height="117" rx="4" fill="#1E2841"/>
<circle cx="788.501" cy="9.5" r="9.5" fill="#1E2841"/>
<circle cx="788.501" cy="124.5" r="9.5" fill="#1E2841"/>
<circle cx="789.125" cy="36.8747" r="9.8747" transform="rotate(90 789.125 36.8747)" fill="#334155"/>
<circle cx="789.125" cy="66.4999" r="9.8747" transform="rotate(90 789.125 66.4999)" fill="#41536C"/>
<circle cx="788.874" cy="95.8747" r="9.8747" transform="rotate(90 788.874 95.8747)" fill="#526886"/>
<defs>
<clipPath id="clip0_1_5209">
<rect x="111.733" y="98.3164" width="21.6797" height="14.0151" rx="2.62784" fill="white"/>
</clipPath>
</defs>
</svg>
