<?xml version="1.0" encoding="UTF-8"?>
<svg id="_레이어_1" data-name="레이어_1" xmlns="http://www.w3.org/2000/svg" version="1.1" viewBox="0 0 16 16">
  <!-- Generator: Adobe Illustrator 29.4.0, SVG Export Plug-In . SVG Version: 2.1.0 Build 152)  -->
  <defs>
    <style>
      .st0 {
        fill: #ffc600;
      }
    </style>
  </defs>
  <path class="st0" d="M0,5.43c.092-.901,1.074-1.419,1.867-.948.614.365.758,1.138.387,1.734-.018.028-.08.087-.067.116l2.731,2.272,2.523-5.047c-.641-.327-.873-1.147-.481-1.759.532-.83,1.789-.726,2.171.182.228.541.049,1.145-.424,1.483-.036.026-.116.063-.139.084-.006.005-.011.009-.009.018l2.506,5.039,2.746-2.273c.007-.01.001-.018-.003-.027-.022-.046-.083-.111-.112-.162-.417-.73.015-1.664.839-1.816,1.114-.206,1.895,1.065,1.204,1.964-.284.369-.765.536-1.222.458l-1.041,4.93-.03.011-10.928-.002-1.037-4.94c-.437.073-.892-.069-1.183-.406-.155-.18-.279-.452-.299-.69v-.223Z"/>
  <path class="st0" d="M13.532,12.918v1.04c0,.407-.527.841-.929.806H3.405c-.533-.01-.918-.387-.949-.918-.018-.304.013-.623,0-.928h11.076Z"/>
</svg>