<svg width="17" height="17" viewBox="0 0 17 17" fill="none" xmlns="http://www.w3.org/2000/svg">
<path fill-rule="evenodd" clip-rule="evenodd" d="M10.1646 2.94846C9.27555 2.18352 7.96081 2.18352 7.07174 2.94846C6.68771 3.27887 6.20794 3.4776 5.70275 3.51551C4.53319 3.60329 3.60353 4.53295 3.51576 5.70251C3.47784 6.2077 3.27912 6.68746 2.9487 7.0715C2.18377 7.96056 2.18377 9.2753 2.9487 10.1644C3.27912 10.5484 3.47784 11.0282 3.51576 11.5334C3.60353 12.7029 4.53319 13.6326 5.70275 13.7204C6.20794 13.7583 6.68771 13.957 7.07174 14.2874C7.96081 15.0523 9.27555 15.0523 10.1646 14.2874C10.5486 13.957 11.0284 13.7583 11.5336 13.7204C12.7032 13.6326 13.6328 12.7029 13.7206 11.5334C13.7585 11.0282 13.9572 10.5484 14.2877 10.1644C15.0526 9.2753 15.0526 7.96056 14.2877 7.0715C13.9572 6.68746 13.7585 6.2077 13.7206 5.70251C13.6328 4.53295 12.7032 3.60329 11.5336 3.51551C11.0284 3.4776 10.5486 3.27887 10.1646 2.94846ZM11.731 7.30695C11.9734 7.03755 11.9516 6.62261 11.6822 6.38015C11.4128 6.1377 10.9979 6.15953 10.7554 6.42893L8.02801 9.45937L6.41332 8.11379C6.13488 7.88177 5.72108 7.91939 5.48905 8.19782C5.25702 8.47625 5.29464 8.89006 5.57307 9.12208L7.54366 10.7642C7.88688 11.0503 8.3948 11.0138 8.69368 10.6817L11.731 7.30695Z" fill="#10B981"/>
</svg>
