<svg width="40" height="40" viewBox="0 0 40 40" fill="none" xmlns="http://www.w3.org/2000/svg">
<path d="M7.67417 24.3504C8.98526 31.3801 15.7468 36.0159 22.7764 34.7048C29.8061 33.3937 34.4419 26.6322 33.1308 19.6026C31.8197 12.5729 25.0582 7.93712 18.0285 9.2482C10.9989 10.5593 6.36308 17.3208 7.67417 24.3504Z" fill="#F5C2D0"/>
<ellipse cx="1.21199" cy="1.16438" rx="1.21199" ry="1.16438" transform="matrix(9.68485e-09 -1 -1 -9.68485e-09 17.4014 24.446)" fill="#334155"/>
<ellipse cx="1.22" cy="1.165" rx="1.22" ry="1.165" transform="matrix(-4.91277e-08 1 1 4.91277e-08 23.0625 21.9417)" fill="#334155"/>
<circle cx="3.23695" cy="3.23695" r="3.23695" transform="matrix(-0.983048 0.183347 0.183347 0.983048 10.291 19.7026)" fill="#F5C2D0"/>
<circle cx="3.23695" cy="3.23695" r="3.23695" transform="matrix(-0.983048 0.183347 0.183347 0.983048 35.8037 19.7024)" fill="#F5C2D0"/>
<path fill-rule="evenodd" clip-rule="evenodd" d="M7.44033 18.7107C9.37344 20.0411 11.8151 20.5941 14.2618 20.0447C16.746 19.4869 18.7396 17.9039 19.9117 15.8287C21.7841 19.1291 25.6046 20.9741 29.4376 20.1134C30.8154 19.804 32.0423 19.1792 33.0618 18.3301C33.0235 18.1078 32.9793 17.8853 32.9294 17.6628C31.3342 10.5589 24.3849 6.07013 17.4078 7.63685C11.9675 8.85847 8.11659 13.4011 7.44033 18.7107Z" fill="#1E293B"/>
<path fill-rule="evenodd" clip-rule="evenodd" d="M29.7131 11.4667L10.8406 11.2881C11.2874 7.63782 15.3819 4.80728 20.3386 4.85419C25.2954 4.9011 29.3356 7.80861 29.7131 11.4667Z" fill="#FACC15"/>
<rect x="7.69531" y="11.2584" width="25.1647" height="3.14559" rx="1.04853" transform="rotate(0.542194 7.69531 11.2584)" fill="#FACC15"/>
<path d="M17.1714 7.15472C17.1878 5.41754 18.6094 4.0226 20.3466 4.03904C22.0838 4.05548 23.4787 5.47707 23.4623 7.21425L23.4226 11.4082L17.1317 11.3486L17.1714 7.15472Z" fill="#EAB308"/>
</svg>
