<svg width="16" height="16" viewBox="0 0 16 16" fill="none" xmlns="http://www.w3.org/2000/svg">
<path d="M10.6001 2.59961C12.4718 2.59961 13.9798 4.03751 14.1245 5.90234L14.1333 6.08398V6.2002C14.1333 7.24212 13.7297 8.14487 13.061 8.75781L12.8667 8.93652V8.98047C12.7658 9.06604 12.6354 9.17783 12.4839 9.30957C12.1467 9.60273 11.6951 10.0004 11.2036 10.4336C10.2218 11.2989 9.07978 12.3083 8.34912 12.9395C8.17271 13.0862 7.89868 13.0865 7.72119 12.9414C6.98898 12.309 5.8258 11.2963 4.83643 10.4316C4.34083 9.99852 3.88898 9.6028 3.55713 9.31152C3.40699 9.17974 3.28753 9.07349 3.19971 8.99609V8.95117L3.0249 8.77539C2.33114 8.08163 1.93316 7.16559 1.93311 6.2002V6.08496C1.98989 4.21111 3.58957 2.66699 5.46729 2.66699C5.74546 2.6671 6.11416 2.76392 6.48193 2.96191C6.83384 3.1514 7.14187 3.41108 7.34424 3.7002C7.64103 4.30642 8.51676 4.29878 8.79932 3.67773C8.96458 3.37509 9.26419 3.10098 9.62549 2.89941C9.99308 2.69441 10.3598 2.59963 10.6001 2.59961Z" stroke="#64748B" stroke-width="1.2"/>
</svg>
