<svg width="16" height="16" viewBox="0 0 16 16" fill="none" xmlns="http://www.w3.org/2000/svg">
<path fill-rule="evenodd" clip-rule="evenodd" d="M11.2663 2.3813H11.333C13.174 2.3813 14.6663 3.87369 14.6663 5.71464V11.7146C14.6663 13.5556 13.174 15.048 11.333 15.048H4.66634C3.78229 15.048 2.93444 14.6968 2.30932 14.0717C1.6842 13.4465 1.33301 12.5987 1.33301 11.7146V5.71464C1.33301 3.87369 2.82539 2.3813 4.66634 2.3813H4.73301V1.16797C4.73301 0.891826 4.95687 0.667969 5.23301 0.667969C5.50915 0.667969 5.73301 0.891826 5.73301 1.16797V2.3813H10.2663V1.16797C10.2663 0.891826 10.4902 0.667969 10.7663 0.667969C11.0425 0.667969 11.2663 0.891826 11.2663 1.16797V2.3813ZM4.99967 6.4413H10.9997C11.2758 6.4413 11.4997 6.21744 11.4997 5.9413C11.4997 5.66516 11.2758 5.4413 10.9997 5.4413H4.99967C4.72353 5.4413 4.49967 5.66516 4.49967 5.9413C4.49967 6.21744 4.72353 6.4413 4.99967 6.4413Z" fill="#64748B"/>
</svg>
