<?xml version="1.0" encoding="UTF-8"?>
<svg id="_레이어_1" data-name="레이어_1" xmlns="http://www.w3.org/2000/svg" version="1.1" viewBox="0 0 60 60">
  <!-- Generator: Adobe Illustrator 29.4.0, SVG Export Plug-In . SVG Version: 2.1.0 Build 152)  -->
  <defs>
    <style>
      .st0 {
        fill: #64748b;
        fill-rule: evenodd;
      }

      .st1 {
        fill: #1e293b;
      }
    </style>
  </defs>
  <path class="st1" d="M30,0C13.458,0,0,13.458,0,30s13.458,30,30,30,30-13.458,30-30S46.542,0,30,0Z"/>
  <path class="st0" d="M32.23,20h-4.23c-4.418,0-8,3.582-8,8v4.24c0,4.418,3.582,8,8,8h4.23c4.418,0,8-3.582,8-8v-4.24c0-4.418-3.582-8-8-8ZM26.12,24.12c1.105,0,2,.895,2,2s-.895,2-2,2-2-.895-2-2,.895-2,2-2ZM33.51,38.12c2.831-1.057,4.711-3.758,4.72-6.78l-.03-1.72c0-.41-.08-1.18-.08-1.18h-1.63c-3.774.011-7.219,2.146-8.91,5.52-1.227-1.097-2.814-1.705-4.46-1.71h-1.21c-.089,2.325,1.173,4.492,3.24,5.56.739.394,1.563.6,2.4.6h4.17c.609.009,1.215-.089,1.79-.29Z"/>
</svg>