<?xml version="1.0" encoding="UTF-8"?>
<svg id="_레이어_1" data-name="레이어_1" xmlns="http://www.w3.org/2000/svg" version="1.1" viewBox="0 0 30 30">
  <!-- Generator: Adobe Illustrator 29.4.0, SVG Export Plug-In . SVG Version: 2.1.0 Build 152)  -->
  <defs>
    <style>
      .st0, .st1 {
        fill-rule: evenodd;
      }

      .st0, .st2 {
        fill: #475569;
      }

      .st3 {
        fill: #334155;
      }

      .st1 {
        fill: #1e293b;
      }

      .st4 {
        fill: #64748b;
      }
    </style>
  </defs>
  <path class="st3" d="M15,0C6.729,0,0,6.729,0,15s6.729,15,15,15,15-6.729,15-15S23.271,0,15,0Z"/>
  <path class="st4" d="M6.151,18.169c.913,4.896,5.622,8.124,10.517,7.211,4.896-.913,8.124-5.622,7.211-10.517-.913-4.896-5.622-8.124-10.517-7.211-4.895.913-8.124,5.622-7.211,10.517Z"/>
  <circle class="st4" cx="6.17" cy="17.563" r="2.254"/>
  <circle class="st4" cx="23.936" cy="17.563" r="2.254"/>
  <path class="st1" d="M5.98,14.249c1.346.927,3.047,1.312,4.751.929,1.729-.388,3.116-1.489,3.933-2.933,1.304,2.298,3.965,3.583,6.634,2.983.96-.215,1.815-.651,2.525-1.243-.027-.154-.057-.308-.092-.462-1.111-4.947-5.95-8.073-10.809-6.982-3.787.85-6.468,4.012-6.941,7.707Z"/>
  <path class="st0" d="M21.498,9.205l-13.143-.124c.312-2.542,3.163-4.513,6.614-4.48,3.452.033,6.265,2.057,6.528,4.604Z"/>
  <rect class="st2" x="13.818" y="1.478" width="2.191" height="17.525" rx=".73" ry=".73" transform="translate(4.532 25.056) rotate(-89.458)"/>
  <path class="st3" d="M12.762,6.206c.011-1.21,1.001-2.181,2.211-2.17,1.21.011,2.181,1.001,2.17,2.211l-.028,2.921-4.381-.042.028-2.921Z"/>
</svg>