<?xml version="1.0" encoding="UTF-8"?>
<svg id="_레이어_1" data-name="레이어_1" xmlns="http://www.w3.org/2000/svg" version="1.1" viewBox="0 0 40 40">
  <!-- Generator: Adobe Illustrator 29.4.0, SVG Export Plug-In . SVG Version: 2.1.0 Build 152)  -->
  <defs>
    <style>
      .st0 {
        fill: #fff;
      }

      .st1 {
        fill: #48ac3f;
      }
    </style>
  </defs>
  <g>
    <path class="st1" d="M32.115,6.246h-4.038c-.691,0-1.25.559-1.25,1.25s.559,1.25,1.25,1.25h4.038c2.28,0,4.136,1.831,4.136,4.084v14.331c0,2.251-1.855,4.082-4.136,4.082h-5.864v-3.75c0-.505-.305-.962-.771-1.155-.461-.19-1.006-.085-1.362.271l-4.998,4.998c-.116.116-.208.254-.272.408-.126.305-.126.649,0,.955.064.154.156.292.272.408l4.998,4.998c.239.239.559.366.884.366.161,0,.325-.032.479-.095.466-.193.771-.649.771-1.155v-3.75h5.864c3.66,0,6.636-2.952,6.636-6.582v-14.331c0-3.63-2.976-6.584-6.636-6.584Z"/>
    <path class="st1" d="M21.155,7.973c.126-.305.126-.649,0-.955-.064-.154-.156-.292-.272-.408L15.885,1.612c-.356-.356-.896-.459-1.362-.271-.466.193-.771.649-.771,1.155v3.75h-5.867c-3.657,0-6.633,2.954-6.633,6.584v14.331c0,3.63,2.976,6.582,6.633,6.582h4.038c.691,0,1.25-.559,1.25-1.25s-.559-1.25-1.25-1.25h-4.038c-2.28,0-4.133-1.831-4.133-4.082v-14.331c0-2.253,1.853-4.084,4.133-4.084h5.867v3.75c0,.505.305.962.771,1.155.154.063.317.095.479.095.325,0,.645-.127.884-.366l4.998-4.998c.116-.116.208-.254.272-.408Z"/>
  </g>
  <g>
    <path class="st0" d="M10.903,18.032c-.146-.067-.373-.087-.685-.059-.136.01-.243-.053-.32-.189-.068-.126-.103-.281-.103-.466s.034-.335.103-.452c.077-.136.185-.185.32-.146.34.029.681.039,1.021.029.184,0,.428-.005.729-.015l.32-.015c-.02.127-.02.189,0,.189s.141-.06.364-.181c.185-.1.379-.175.583-.225.281-.051.666-.075,1.151-.075.34,0,.651.062.933.189.232.116.418.271.554.466.233-.224.481-.379.743-.466.369-.127.889-.189,1.559-.189.633,0,1.143.185,1.531.555.398.38.598.9.598,1.562v4.367c0,.165.062.272.189.321.115.049.33.053.641.015.154-.029.287.024.393.16.088.116.133.271.133.466,0,.185-.045.335-.133.452-.105.136-.238.194-.393.175-.447-.029-.846-.044-1.195-.044-.428,0-.874.015-1.34.044-.146.01-.263-.054-.35-.189-.078-.116-.117-.268-.117-.452-.01-.185.023-.335.102-.451.088-.136.205-.189.35-.16.137.01.229-.005.277-.044.068-.039.102-.137.102-.293v-4.149c0-.351-.077-.613-.232-.789-.176-.194-.442-.292-.802-.292-.485,0-.86.098-1.122.291-.233.166-.369.413-.408.743v4.197c0,.185.034.297.102.336.068.038.195.038.379,0,.156-.039.282.005.379.131.088.106.132.253.132.438s-.044.34-.132.466c-.097.146-.223.219-.379.219-.311-.029-.713-.044-1.209-.044-.457,0-.816.015-1.078.044-.176.02-.316-.044-.423-.189-.087-.126-.132-.281-.132-.467,0-.193.049-.35.146-.466.107-.126.252-.17.438-.131.126.028.223.028.291,0,.098-.049.146-.161.146-.337v-4.179c0-.331-.068-.579-.205-.745-.165-.204-.418-.307-.758-.307-.466,0-.826.088-1.078.263-.232.166-.408.429-.524.789v4.179c-.01.137.015.229.073.278s.16.063.306.044c.146-.029.263.02.35.146.077.116.116.268.116.451,0,.176-.039.326-.116.452-.087.146-.204.214-.35.204-.35-.029-.724-.044-1.122-.044-.408,0-.918.015-1.53.044-.136.02-.243-.044-.32-.189-.068-.126-.103-.281-.103-.467,0-.184.034-.335.103-.451.077-.136.185-.185.32-.146h.044c.311.029.52.029.627,0,.174-.039.262-.146.262-.321v-4.562c-.01-.155-.092-.262-.248-.32Z"/>
    <path class="st0" d="M29.213,17.714c.66.77.991,1.732.991,2.891,0,1.139-.331,2.093-.991,2.861-.738.856-1.754,1.285-3.046,1.285-1.302,0-2.322-.429-3.061-1.285-.66-.769-.99-1.723-.99-2.861,0-1.158.33-2.121.99-2.891.738-.856,1.759-1.284,3.061-1.284,1.292,0,2.308.428,3.046,1.284ZM24.142,18.574c-.418.525-.627,1.197-.627,2.016,0,.799.209,1.466.627,2.002.485.604,1.161.905,2.025.905.846,0,1.511-.302,1.996-.905.428-.536.642-1.203.642-2.002,0-.818-.214-1.49-.642-2.016-.485-.595-1.15-.892-1.996-.892-.874,0-1.55.297-2.025.892Z"/>
  </g>
</svg>