<?xml version="1.0" encoding="UTF-8"?>
<svg id="_레이어_1" xmlns="http://www.w3.org/2000/svg" version="1.1" viewBox="0 0 18 18">
  <!-- Generator: Adobe Illustrator 29.4.0, SVG Export Plug-In . SVG Version: 2.1.0 Build 152)  -->
  <defs>
    <style>
      .st0 {
        fill: #334155;
      }

      .st1 {
        fill: #64748b;
      }
    </style>
  </defs>
  <path class="st0" d="M9,0C4.038,0,0,4.038,0,9s4.038,9,9,9,9-4.037,9-9S13.963,0,9,0Z"/>
  <g>
    <path class="st1" d="M8.484,6.328l-2.153,4.642c-.051.11-.056.236-.013.349l.528,1.404c.086.23.34.348.57.267l1.409-.496c.114-.04.207-.125.258-.234l2.153-4.641-2.751-1.291h-.001Z"/>
    <path class="st1" d="M11.471,7.109l.292-.63c.105-.225.007-.494-.218-.599l-1.937-.908c-.225-.106-.492-.008-.597.217l-.292.629,2.751,1.291h.001Z"/>
  </g>
</svg>