<svg width="181" height="64" viewBox="0 0 181 64" fill="none" xmlns="http://www.w3.org/2000/svg">
<g clip-path="url(#clip0_365_10661)">
<g opacity="0.3">
<mask id="mask0_365_10661" style="mask-type:alpha" maskUnits="userSpaceOnUse" x="-1" y="-27" width="182" height="119">
<path fill-rule="evenodd" clip-rule="evenodd" d="M125.147 2.75001C118.284 9.55573 118.284 20.59 125.147 27.3957C132.01 34.2014 143.137 34.2014 150 27.3957L150.001 27.3947L150.002 27.3957C156.865 34.2014 167.992 34.2014 174.855 27.3957C181.718 20.59 181.718 9.55573 174.855 2.75001L174.854 2.74896C181.716 -4.05684 181.715 -15.0903 174.853 -21.8957C167.99 -28.7011 156.864 -28.7014 150.001 -21.8967C143.138 -28.7014 132.012 -28.7011 125.149 -21.8957C118.287 -15.0903 118.286 -4.05684 125.148 2.74896L125.147 2.75001Z" fill="white"/>
<path fill-rule="evenodd" clip-rule="evenodd" d="M65.1471 2.75001C58.2841 9.55573 58.2842 20.59 65.1471 27.3957C72.01 34.2014 83.137 34.2014 89.9999 27.3957L90.0009 27.3947L90.002 27.3957C96.8649 34.2014 107.992 34.2014 114.855 27.3957C121.718 20.59 121.718 9.55573 114.855 2.75001L114.854 2.74896C121.716 -4.05684 121.715 -15.0903 114.853 -21.8957C107.99 -28.7011 96.8639 -28.7014 90.0009 -21.8967C83.1379 -28.7014 72.0117 -28.7011 65.1492 -21.8957C58.2866 -15.0903 58.2862 -4.05684 65.1481 2.74896L65.1471 2.75001Z" fill="white"/>
<path fill-rule="evenodd" clip-rule="evenodd" d="M5.14706 2.75001C-1.71585 9.55573 -1.71585 20.59 5.14707 27.3957C12.01 34.2014 23.137 34.2014 29.9999 27.3957L30.0009 27.3947L30.002 27.3957C36.8649 34.2014 47.9919 34.2014 54.8548 27.3957C61.7177 20.59 61.7177 9.55573 54.8548 2.75001L54.8537 2.74896C61.7156 -4.05684 61.7153 -15.0903 54.8527 -21.8957C47.9901 -28.7011 36.8639 -28.7014 30.0009 -21.8967C23.1379 -28.7014 12.0117 -28.7011 5.14916 -21.8957C-1.71341 -15.0903 -1.71376 -4.05684 5.14811 2.74896L5.14706 2.75001Z" fill="white"/>
<path fill-rule="evenodd" clip-rule="evenodd" d="M125.147 62.25C118.284 69.0557 118.284 80.09 125.147 86.8957C132.01 93.7014 143.137 93.7014 150 86.8957L150.001 86.8947L150.002 86.8957C156.865 93.7014 167.992 93.7014 174.855 86.8957C181.718 80.09 181.718 69.0557 174.855 62.25L174.854 62.249C181.716 55.4432 181.715 44.4097 174.853 37.6043C167.99 30.7989 156.864 30.7986 150.001 37.6033C143.138 30.7986 132.012 30.7989 125.149 37.6043C118.287 44.4097 118.286 55.4432 125.148 62.249L125.147 62.25Z" fill="white"/>
<path fill-rule="evenodd" clip-rule="evenodd" d="M65.1471 62.25C58.2841 69.0557 58.2842 80.09 65.1471 86.8957C72.01 93.7014 83.137 93.7014 89.9999 86.8957L90.0009 86.8947L90.002 86.8957C96.8649 93.7014 107.992 93.7014 114.855 86.8957C121.718 80.09 121.718 69.0557 114.855 62.25L114.854 62.249C121.716 55.4432 121.715 44.4097 114.853 37.6043C107.99 30.7989 96.8639 30.7986 90.0009 37.6033C83.1379 30.7986 72.0117 30.7989 65.1492 37.6043C58.2866 44.4097 58.2862 55.4432 65.1481 62.249L65.1471 62.25Z" fill="white"/>
<path fill-rule="evenodd" clip-rule="evenodd" d="M5.14706 62.25C-1.71585 69.0557 -1.71585 80.09 5.14707 86.8957C12.01 93.7014 23.137 93.7014 29.9999 86.8957L30.0009 86.8947L30.002 86.8957C36.8649 93.7014 47.9919 93.7014 54.8548 86.8957C61.7177 80.09 61.7177 69.0557 54.8548 62.25L54.8537 62.249C61.7156 55.4432 61.7153 44.4097 54.8527 37.6043C47.9901 30.7989 36.8639 30.7986 30.0009 37.6033C23.1379 30.7986 12.0117 30.7989 5.14916 37.6043C-1.71341 44.4097 -1.71376 55.4432 5.14811 62.249L5.14706 62.25Z" fill="white"/>
</mask>
<g mask="url(#mask0_365_10661)">
<rect y="-27" width="180" height="119" fill="url(#paint0_linear_365_10661)"/>
</g>
</g>
</g>
<defs>
<linearGradient id="paint0_linear_365_10661" x1="90" y1="-27" x2="90" y2="92" gradientUnits="userSpaceOnUse">
<stop stop-color="white" stop-opacity="0"/>
<stop offset="1" stop-color="white"/>
</linearGradient>
<clipPath id="clip0_365_10661">
<rect width="181" height="64" fill="white"/>
</clipPath>
</defs>
</svg>
