<?xml version="1.0" encoding="UTF-8"?>
<svg id="_레이어_1" data-name="레이어_1" xmlns="http://www.w3.org/2000/svg" version="1.1" viewBox="0 0 40 40">
  <!-- Generator: Adobe Illustrator 29.4.0, SVG Export Plug-In . SVG Version: 2.1.0 Build 152)  -->
  <defs>
    <style>
      .st0 {
        fill: #fff;
      }

      .st1 {
        fill: #48ac3f;
      }
    </style>
  </defs>
  <g>
    <path class="st1" d="M32.115,6.246h-4.038c-.691,0-1.25.559-1.25,1.25s.559,1.25,1.25,1.25h4.038c2.28,0,4.136,1.831,4.136,4.084v14.331c0,2.251-1.855,4.082-4.136,4.082h-5.864v-3.75c0-.505-.305-.962-.771-1.155-.461-.19-1.006-.085-1.362.271l-4.998,4.998c-.116.116-.208.254-.272.408-.126.305-.126.649,0,.955.064.154.156.292.272.408l4.998,4.998c.239.239.559.366.884.366.161,0,.325-.032.479-.095.466-.193.771-.649.771-1.155v-3.75h5.864c3.66,0,6.636-2.952,6.636-6.582v-14.331c0-3.63-2.976-6.584-6.636-6.584Z"/>
    <path class="st1" d="M21.155,7.973c.126-.305.126-.649,0-.955-.064-.154-.156-.292-.272-.408L15.885,1.612c-.356-.356-.896-.459-1.362-.271-.466.193-.771.649-.771,1.155v3.75h-5.867c-3.657,0-6.633,2.954-6.633,6.584v14.331c0,3.63,2.976,6.582,6.633,6.582h4.038c.691,0,1.25-.559,1.25-1.25s-.559-1.25-1.25-1.25h-4.038c-2.28,0-4.133-1.831-4.133-4.082v-14.331c0-2.253,1.853-4.084,4.133-4.084h5.867v3.75c0,.505.305.962.771,1.155.154.063.317.095.479.095.325,0,.645-.127.884-.366l4.998-4.998c.116-.116.208-.254.272-.408Z"/>
  </g>
  <g>
    <path class="st0" d="M11.355,19.142c-.117-.068-.282-.078-.496-.029-.116.02-.204-.039-.262-.175-.059-.117-.088-.262-.088-.438s.029-.325.088-.452c.058-.126.146-.18.262-.16.263.039.709.058,1.341.058.603-.009,1.03-.029,1.282-.058.137-.029.248.024.336.16.067.117.102.263.102.438s-.034.325-.102.452c-.088.126-.199.185-.336.175l-.058-.015c-.175,0-.297.02-.364.059-.117.048-.151.155-.103.32l.918,3.191c.059.175.103.263.132.263.038,0,.087-.088.146-.263l1.151-3.293c.087-.311.252-.466.495-.466.253,0,.418.156.495.466l1.137,3.293c.049.185.098.277.146.277.048,0,.092-.093.131-.277l.947-3.191c.029-.146,0-.248-.088-.306-.097-.048-.276-.063-.539-.043-.126.01-.224-.049-.291-.175-.068-.117-.103-.267-.103-.452,0-.175.034-.32.103-.437.067-.136.165-.194.291-.175.34.039.821.054,1.443.044.582,0,.98-.015,1.194-.044.107-.029.194.024.263.16.058.117.087.268.087.452,0,.185-.029.335-.087.452-.068.136-.155.189-.263.16-.204-.029-.35-.02-.438.029-.077.048-.146.16-.203.335l-1.677,5.858c-.106.408-.34.612-.699.612-.369,0-.607-.199-.714-.598l-1.034-3.017c-.039-.155-.078-.233-.117-.233-.029,0-.063.078-.102.233l-1.006,2.914c-.059.224-.16.403-.306.539-.137.107-.282.161-.438.161-.165,0-.312-.059-.438-.175-.136-.127-.219-.297-.247-.511l-1.676-5.785c-.049-.175-.122-.287-.219-.335Z"/>
    <path class="st0" d="M22.043,16.227c-.155-.039-.354-.039-.598,0-.136.02-.237-.044-.306-.189-.068-.117-.102-.272-.102-.466,0-.185.033-.335.102-.452.068-.136.17-.189.306-.16.477.039.86.063,1.151.073.418.01.797-.014,1.137-.073v5.8l2.187-1.676c.077-.097.087-.16.029-.189-.039-.039-.142-.058-.307-.058-.106.01-.189-.058-.248-.204-.058-.126-.087-.282-.087-.466s.034-.335.102-.452c.088-.126.199-.17.336-.131.427.059.956.083,1.588.073.544,0,1.078-.024,1.604-.073.155-.029.286.024.394.161.087.116.131.267.131.452,0,.175-.044.326-.131.452-.107.136-.238.199-.394.189h-.263c-.136-.01-.238-.005-.306.015-.107.029-.209.092-.307.189l-2.273,1.734,2.376,3.556c.067.098.16.151.276.16.078.01.209-.005.394-.043l.189-.029c.146-.029.263.02.35.146.078.116.117.268.117.452,0,.175-.039.325-.117.451-.087.146-.204.214-.35.204-.262-.02-.66-.034-1.194-.044-.642,0-1.151.015-1.53.044-.185.01-.326-.053-.423-.189-.078-.116-.116-.267-.116-.452.009-.175.053-.325.131-.451.097-.136.219-.189.364-.16.116.029.175,0,.175-.088.01-.097-.049-.228-.175-.394l-1.501-2.303-1.021.86v3.177c-.428-.02-.84-.029-1.238-.029s-.748.01-1.05.029c-.136.02-.237-.034-.306-.16s-.102-.281-.102-.467c0-.184.033-.335.102-.451.068-.146.17-.204.306-.175.204.049.403.067.598.058.233-.028.35-.097.35-.203v-7.724c0-.165-.116-.272-.35-.32Z"/>
  </g>
</svg>