<?xml version="1.0" encoding="UTF-8"?>
<svg id="_레이어_1" data-name="레이어_1" xmlns="http://www.w3.org/2000/svg" version="1.1" viewBox="0 0 16 16">
  <!-- Generator: Adobe Illustrator 29.4.0, SVG Export Plug-In . SVG Version: 2.1.0 Build 152)  -->
  <defs>
    <style>
      .st0 {
        fill: #f8fafc;
      }
    </style>
  </defs>
  <path class="st0" d="M3.053,8.754c.791,0,1.434-.643,1.434-1.434s-.643-1.434-1.434-1.434-1.434.643-1.434,1.434.643,1.434,1.434,1.434Z"/>
  <path class="st0" d="M12.947,8.754c.791,0,1.434-.643,1.434-1.434s-.643-1.434-1.434-1.434-1.434.643-1.434,1.434.643,1.434,1.434,1.434Z"/>
  <path class="st0" d="M8,8.044c.991,0,1.798-.806,1.798-1.798s-.807-1.798-1.798-1.798-1.798.806-1.798,1.798.806,1.798,1.798,1.798Z"/>
  <path class="st0" d="M9.403,8.658h-2.806c-.48,0-.932.187-1.271.527s-.527.791-.527,1.271v.701c0,.189.135.339.312.378l-.005.017h5.788l-.005-.017c.177-.039.312-.189.312-.378v-.701c0-.481-.187-.933-.527-1.271-.34-.34-.791-.527-1.271-.527Z"/>
  <path class="st0" d="M15.08,9.663c-.271-.271-.631-.42-1.014-.42h-2.239c-.234,0-.45.072-.651.177.182.312.287.664.287,1.035v.701c0,.149-.054.284-.141.395h3.933l-.004-.013c.141-.031.249-.151.249-.301v-.559c0-.384-.149-.744-.42-1.014Z"/>
  <path class="st0" d="M4.536,10.456c0-.371.105-.723.288-1.035-.201-.105-.418-.177-.651-.177H1.934c-.383,0-.743.149-1.014.42s-.42.631-.42,1.014v.559c0,.15.108.27.249.302l-.004.013h3.931c-.087-.11-.14-.246-.14-.395v-.701Z"/>
</svg>